<?xml version="1.0" encoding="UTF-8"?>
<svg xmlns="http://www.w3.org/2000/svg" viewBox="0 0 595.28 841.89">
  <defs>
    <style>
      .cls-1, .cls-2 {
        fill: #1d1d1b;
      }

      .cls-3 {
        font-family: Poppins-Medium, Poppins;
      }

      .cls-3, .cls-4 {
        fill: #fbba19;
      }

      .cls-4 {
        font-family: Poppins-SemiBold, Poppins;
      }

      .cls-2 {
        font-family: Poppins-Regular, Poppins;
      }

      .cls-5 {
        font-size: 98.99px;
      }
    </style>
  </defs>
  <g id="Calque_1" data-name="Calque 1">
    <text class="cls-5" transform="translate(12.87 540.46)"><tspan class="cls-2" x="0" y="0" xml:space="preserve"> es</tspan><tspan class="cls-4" x="139.47" y="0">delivery</tspan><tspan class="cls-3" x="542.94" y="0" xml:space="preserve">  </tspan></text>
  </g>
  <g id="Calque_2" data-name="Calque 2">
    <path class="cls-1" d="M281.2,397.12c4.79-5.9,9.57-11.8,14.36-17.7,4.62-5.69,10.04-12.06,15.82-16.56,8.6,.03,17.15-3.55,23.16-9.7,3.06-3.14,5.45-6.86,7.82-10.55,3.36-5.24,6.71-10.48,10.07-15.72,8.31-12.98,16.78-26.33,19.93-41.42,.28-1.32,.5-2.75-.07-3.98-.57-1.23-2.17-2.02-3.21-1.16-23.54,19.45-43.25,43.08-65.27,64.24-15.52,14.92-31.05,29.83-46.57,44.75-7.56,7.26-15.46,15.11-17.88,25.3-.92,3.88,1.3,8.86,4.9,10.58s7.98,1.07,11.52-.78,6.39-4.76,9.11-7.68c5.5-5.89,11.24-13.38,16.32-19.63Z"/>
    <path class="cls-1" d="M297.75,342.87c-1.58-.94-2.12-3.19-3.13-4.1-1.11-1-1.53-2.56-1.27-4.03,.52-2.9,1.05-5.83,1-8.78s-.74-5.96-2.43-8.38c-1.31-1.87-3.17-3.3-4.64-5-4.52-4.55-9.01-9.06-13.54-13.6-7.45-6.2-13.83-14.18-22.1-19.61-1.41-.93-2.98-1.8-4.66-1.75s-3.43,1.42-3.29,3.11c.09,1.05,.84,1.9,1.57,2.66,4.9,5.14,10.1,9.97,15.59,14.47,5.26,4.31,10.06,9.17,14.31,14.47,.91,1.13,1.83,2.37,1.1,4.14-.6,1.45-2.26,2.17-3.8,1.89-3.22-.59-5.86-3.25-8.13-5.74-7.2-7.9-15.47-14.99-22.67-22.89-.87-.95-1.76-1.92-2.9-2.51s-2.61-.73-3.68-.01c-.4,.27-.71,.62-.95,1.02-.97,1.63-.5,3.75,.79,5.14,9.7,10.39,19.39,21.06,30.41,29.99,1.39,1.12,1.79,3.2,.67,4.59s-3.2,1.77-4.95,1.33c-1.64-.41-3.07-1.41-4.4-2.46-10.16-8.01-16.5-19.91-25.73-28.98-.87-.85-1.84-1.72-3.04-1.91-2-.32-3.78,1.33-4.81,3.09-.68,1.17-.51,2.65,.3,3.73,10.09,13.4,21.32,25.95,33.53,37.45,3.29,3.1,6.63,6.7,11.01,7.81,3.43,.87,7.04,.25,10.59,.21,3.54-.04,7.45,.72,9.62,3.52,1.26-.87,2.68-1.6,3.94-2.47,2.41-1.67,4.3-3.8,5.69-6.38Z"/>
    <path class="cls-1" d="M314.31,368.12c2.11-1.61,3.14-3.78,5.71-3.15,4.3,3.15,10.34,7.5,14.65,10.65,3.64,2.66,7.28,5.32,10.77,8.17,7.66,6.23,14.61,13.32,20.69,21.09,2.1,2.69,4.14,5.55,5.03,8.85s.39,7.16-2.04,9.56c-2.41,2.38-6.24,2.83-9.5,1.91s-6.06-2.99-8.65-5.17c-8.25-6.91-15.22-15.2-22.14-23.43-4.21-5-8.42-10.01-12.62-15.01-1.49-1.77-5.46-5.04-6.05-7.25-.62-2.32,2.35-4.85,4.16-6.22Z"/>
  </g>
</svg>